<?xml version="1.0" encoding="iso-8859-1"?>
<!-- Generator: Adobe Illustrator 19.0.0, SVG Export Plug-In . SVG Version: 6.00 Build 0)  -->
<svg version="1.1" id="Layer_1" xmlns="http://www.w3.org/2000/svg" xmlns:xlink="http://www.w3.org/1999/xlink" x="0px" y="0px"
	 viewBox="0 0 485 485" style="enable-background:new 0 0 485 485;" xml:space="preserve">
<g>
	<g>
		<g>
			<path d="M411.494,57.953C366.257,20.581,306.24,0,242.5,0S118.743,20.581,73.506,57.953C27.717,95.78,2.5,146.227,2.5,200
				c0,50.591,21.962,98.125,61.84,133.849c37.054,33.192,87.599,54.423,143.16,60.292V475c0,3.805,2.159,7.279,5.569,8.965
				c1.405,0.694,2.921,1.035,4.43,1.035c2.156,0,4.297-0.697,6.075-2.056l149.951-114.663
				c35.514-26.813,60.008-50.324,77.084-73.992C472.068,264.546,482.5,233.704,482.5,200
				C482.5,146.227,457.283,95.78,411.494,57.953z M361.427,352.357L227.501,454.766v-69.765c0-5.236-4.039-9.586-9.261-9.973
				c-54.809-4.065-104.725-23.98-140.555-56.076C42.099,287.073,22.5,244.829,22.5,200c0-99.252,98.691-180,220-180
				s220,80.748,220,180C462.5,266.832,413.945,312.704,361.427,352.357z"/>
			<path d="M299.708,156.655c-0.039-7.48-3.955-11.646-10.225-11.574c-6.211,0.084-9.951,4.352-9.99,11.813
				c-0.108,13.805-0.03,27.598-0.059,41.391c0,1.992-0.186,3.961-0.352,7.721c-2.363-2.76-3.701-4.18-4.893-5.718
				c-12.793-16.608-25.547-33.248-38.33-49.879c-3.125-4.067-7.08-6.52-12.266-4.893c-5.166,1.615-7.431,5.834-7.441,10.928
				c-0.098,26.656-0.098,53.296,0,79.941c0.01,4.371,1.777,8.121,6.035,10.133c7.52,3.539,14.639-1.797,14.727-11.344
				c0.176-13.027,0.059-26.074,0.059-39.121c0-2.516,0-5.036,0-7.559c2.51,1.142,3.731,2.476,4.844,3.902
				c12.754,16.414,25.478,32.84,38.203,49.297c3.155,4.129,6.768,7.149,12.432,5.223c5.547-1.882,7.305-6.043,7.305-11.439
				C299.728,209.194,299.806,182.928,299.708,156.655z"/>
			<path d="M338.829,165.955c1.924-0.148,4.121-0.449,6.357-0.455c7.54-0.065,15.118,0.084,22.647-0.098
				c2.754-0.078,5.771-0.273,8.203-1.416c4.765-2.223,6.181-6.67,4.902-11.475c-1.25-4.903-4.902-7.451-10.068-7.467
				c-13.409-0.033-26.817-0.062-40.225-0.033c-9.61,0.025-13.457,3.744-13.477,13.314c-0.098,25.324-0.098,50.65,0,75.963
				c0.02,9.42,4.131,13.424,13.516,13.463c12.5,0.058,24.951,0.039,37.412-0.012c2.05-0.02,4.14-0.301,6.113-0.879
				c4.463-1.308,6.885-4.355,7.031-9.105c0.166-4.981-2.099-8.414-6.777-9.844c-2.51-0.766-5.215-0.957-7.803-0.977
				c-9.356-0.121-18.741-0.055-28.262-0.055c0-7.071,0-13.204,0-19.643c1.787-0.166,3.233-0.404,4.689-0.418
				c8.877-0.049,17.783,0.199,26.65-0.117c7.724-0.289,11.777-4.521,11.484-11.07c-0.254-5.886-4.571-9.519-11.641-9.652
				c-4.921-0.088-9.824-0.016-14.775-0.02c-18.34,0-18.34,0-16.621-18.389C338.214,167.205,338.458,166.867,338.829,165.955z"/>
			<path d="M156.328,226.988c-2.061-0.24-4.141-0.109-6.211-0.109c-8.662-0.014-17.285,0-26.758,0c0-3.197,0-5.453,0-7.689
				c0-20.205,0.039-40.424-0.029-60.631c-0.029-8.622-3.848-13.426-10.381-13.477c-6.768-0.063-10.43,4.531-10.43,13.273
				c-0.019,25.688-0.039,51.362,0.02,77.059c0.04,8.164,4.004,12.16,12.188,12.324c7.344,0.129,34.922,0.246,41.338-0.086
				c6.259-0.352,10.615-4.981,10.527-10.465C166.494,231.924,162.324,227.699,156.328,226.988z"/>
			<path d="M198.593,155.269c-0.059-7.785-2.539-10.25-10.049-10.26c-7.647-0.02-10.234,2.334-10.254,10.068
				c-0.088,27.402-0.088,54.795,0,82.207c0.02,7.692,2.813,10.453,10.049,10.465c7.441,0.04,10.215-2.832,10.254-10.855
				c0.04-13.414,0.02-26.82,0.02-40.244C198.613,182.855,198.633,169.072,198.593,155.269z"/>
		</g>
	</g>
</g>
<g>
</g>
<g>
</g>
<g>
</g>
<g>
</g>
<g>
</g>
<g>
</g>
<g>
</g>
<g>
</g>
<g>
</g>
<g>
</g>
<g>
</g>
<g>
</g>
<g>
</g>
<g>
</g>
<g>
</g>
</svg>
